<mxfile host="Electron" modified="2024-05-01T08:20:20.604Z" agent="Mozilla/5.0 (Windows NT 10.0; Win64; x64) AppleWebKit/537.36 (KHTML, like Gecko) draw.io/23.1.5 Chrome/120.0.6099.109 Electron/28.1.0 Safari/537.36" etag="runZ2NKM6_7B0_iBkEDr" version="23.1.5" type="device">
  <diagram name="Page-1" id="e7e014a7-5840-1c2e-5031-d8a46d1fe8dd">
    <mxGraphModel dx="1050" dy="638" grid="1" gridSize="10" guides="1" tooltips="1" connect="1" arrows="1" fold="1" page="1" pageScale="1" pageWidth="1169" pageHeight="826" background="none" math="0" shadow="0">
      <root>
        <mxCell id="0" />
        <mxCell id="1" parent="0" />
        <mxCell id="3" value="" style="swimlane;whiteSpace=wrap" parent="1" vertex="1">
          <mxGeometry x="260" y="140" width="530" height="660" as="geometry" />
        </mxCell>
        <mxCell id="13" value="" style="ellipse;shape=startState;fillColor=#000000;strokeColor=#ff0000;" parent="3" vertex="1">
          <mxGeometry x="240" y="28" width="54" height="54" as="geometry" />
        </mxCell>
        <mxCell id="14" value="" style="edgeStyle=elbowEdgeStyle;elbow=horizontal;verticalAlign=bottom;endArrow=open;endSize=8;strokeColor=#000000;endFill=1;rounded=0" parent="3" edge="1">
          <mxGeometry x="40" y="20" as="geometry">
            <mxPoint x="269" y="111" as="targetPoint" />
            <mxPoint x="269" y="70" as="sourcePoint" />
          </mxGeometry>
        </mxCell>
        <mxCell id="15" value="Make Payment" style="rounded=1;" parent="3" vertex="1">
          <mxGeometry x="210" y="110" width="110" height="50" as="geometry" />
        </mxCell>
        <mxCell id="tVwPUh9YmRbgdtoOJYTo-42" value="" style="edgeStyle=orthogonalEdgeStyle;rounded=0;orthogonalLoop=1;jettySize=auto;html=1;" edge="1" parent="3" source="16" target="30">
          <mxGeometry relative="1" as="geometry" />
        </mxCell>
        <mxCell id="16" value="Process Payment" style="rounded=1;" parent="3" vertex="1">
          <mxGeometry x="212" y="192" width="110" height="50" as="geometry" />
        </mxCell>
        <mxCell id="17" value="" style="endArrow=open;strokeColor=#171717;endFill=1;rounded=0" parent="3" edge="1">
          <mxGeometry relative="1" as="geometry">
            <mxPoint x="267.6097560975611" y="160" as="sourcePoint" />
            <mxPoint x="268.3902439024391" y="192" as="targetPoint" />
          </mxGeometry>
        </mxCell>
        <mxCell id="30" value="Verify Transaction" style="rounded=1;" parent="3" vertex="1">
          <mxGeometry x="212" y="273" width="110" height="50" as="geometry" />
        </mxCell>
        <mxCell id="tVwPUh9YmRbgdtoOJYTo-48" value="" style="edgeStyle=orthogonalEdgeStyle;rounded=0;orthogonalLoop=1;jettySize=auto;html=1;" edge="1" parent="3">
          <mxGeometry relative="1" as="geometry">
            <mxPoint x="267" y="323" as="sourcePoint" />
            <mxPoint x="267" y="366" as="targetPoint" />
          </mxGeometry>
        </mxCell>
        <mxCell id="tVwPUh9YmRbgdtoOJYTo-50" value="" style="edgeStyle=orthogonalEdgeStyle;rounded=0;orthogonalLoop=1;jettySize=auto;html=1;entryX=1;entryY=0.5;entryDx=0;entryDy=0;exitX=0.913;exitY=0.5;exitDx=0;exitDy=0;exitPerimeter=0;" edge="1" parent="3" source="tVwPUh9YmRbgdtoOJYTo-47">
          <mxGeometry relative="1" as="geometry">
            <mxPoint x="309" y="405" as="sourcePoint" />
            <mxPoint x="321" y="222" as="targetPoint" />
            <Array as="points">
              <mxPoint x="459" y="405" />
              <mxPoint x="459" y="222" />
            </Array>
          </mxGeometry>
        </mxCell>
        <mxCell id="tVwPUh9YmRbgdtoOJYTo-54" value="[Transaction Failed]" style="edgeLabel;html=1;align=center;verticalAlign=middle;resizable=0;points=[];" vertex="1" connectable="0" parent="tVwPUh9YmRbgdtoOJYTo-50">
          <mxGeometry x="-0.5599" relative="1" as="geometry">
            <mxPoint x="-21" y="-9" as="offset" />
          </mxGeometry>
        </mxCell>
        <mxCell id="tVwPUh9YmRbgdtoOJYTo-56" value="" style="edgeStyle=orthogonalEdgeStyle;rounded=0;orthogonalLoop=1;jettySize=auto;html=1;exitX=0;exitY=0.5;exitDx=0;exitDy=0;" edge="1" parent="3" source="tVwPUh9YmRbgdtoOJYTo-47" target="tVwPUh9YmRbgdtoOJYTo-55">
          <mxGeometry relative="1" as="geometry" />
        </mxCell>
        <mxCell id="tVwPUh9YmRbgdtoOJYTo-58" value="[Transaction Success]" style="edgeLabel;html=1;align=center;verticalAlign=middle;resizable=0;points=[];" vertex="1" connectable="0" parent="tVwPUh9YmRbgdtoOJYTo-56">
          <mxGeometry x="-0.5036" y="-3" relative="1" as="geometry">
            <mxPoint x="-5" y="-7" as="offset" />
          </mxGeometry>
        </mxCell>
        <mxCell id="tVwPUh9YmRbgdtoOJYTo-47" value="" style="rhombus;whiteSpace=wrap;html=1;" vertex="1" parent="3">
          <mxGeometry x="227" y="365" width="80" height="80" as="geometry" />
        </mxCell>
        <mxCell id="tVwPUh9YmRbgdtoOJYTo-53" value="" style="ellipse;shape=endState;fillColor=#000000;strokeColor=#ff0000" vertex="1" parent="3">
          <mxGeometry x="242" y="496" width="50" height="50" as="geometry" />
        </mxCell>
        <mxCell id="tVwPUh9YmRbgdtoOJYTo-55" value="Update Reservation status" style="whiteSpace=wrap;html=1;rounded=1;" vertex="1" parent="3">
          <mxGeometry x="87" y="497" width="120" height="60" as="geometry" />
        </mxCell>
        <mxCell id="tVwPUh9YmRbgdtoOJYTo-57" value="" style="endArrow=classic;html=1;rounded=0;entryX=0;entryY=0.6;entryDx=0;entryDy=0;entryPerimeter=0;exitX=1;exitY=0.5;exitDx=0;exitDy=0;" edge="1" parent="3" source="tVwPUh9YmRbgdtoOJYTo-55" target="tVwPUh9YmRbgdtoOJYTo-53">
          <mxGeometry width="50" height="50" relative="1" as="geometry">
            <mxPoint x="267" y="620" as="sourcePoint" />
            <mxPoint x="317" y="570" as="targetPoint" />
          </mxGeometry>
        </mxCell>
        <mxCell id="tVwPUh9YmRbgdtoOJYTo-59" value="Payment processing wrokflow" style="text;html=1;align=center;verticalAlign=middle;resizable=0;points=[];autosize=1;strokeColor=none;fillColor=none;" vertex="1" parent="1">
          <mxGeometry x="267" y="135" width="180" height="30" as="geometry" />
        </mxCell>
      </root>
    </mxGraphModel>
  </diagram>
</mxfile>
